<?xml version="1.0" encoding="UTF-8"?>
<svg width="181px" height="95px" viewBox="0 0 181 95" version="1.1" xmlns="http://www.w3.org/2000/svg" xmlns:xlink="http://www.w3.org/1999/xlink">
    <title>Group 73</title>
    <defs>
        <polygon id="path-1" points="0 0 13 0 13 13 0 13"></polygon>
        <polygon id="path-3" points="0 0 10 0 10 13 0 13"></polygon>
    </defs>
    <g id="CCI-Presentation-7-November" stroke="none" stroke-width="1" fill="none" fill-rule="evenodd">
        <g id="News-article-2col" transform="translate(-53.000000, -32.000000)">
            <g id="Group-73" transform="translate(53.000000, 32.000000)">
                <path d="M52.0414228,26 L60,62.0065511 C60,62.0065511 57.3471409,67.6488241 50.0522287,67.9804574 C42.756416,68.3120908 28,64.4965048 28,50.8896242 C28,37.2836448 43.4191805,26 52.0414228,26" id="Fill-1" fill="#F1AD22"></path>
                <path d="M99,36.5747898 L99,61.9343736 C99,61.9343736 93.527084,68.0200171 87.5579401,68 C81.5887962,67.980796 65.8355879,61.4308852 66.0012974,45.6430552 C66.1670069,29.8570494 80.5927381,27.8412712 82.5001984,28.0091007 C84.4076587,28.1778424 93.0308561,28.682243 99,36.5747898" id="Fill-3" fill="#EA8128"></path>
                <path d="M118.304125,57.4504115 C118.304125,57.4504115 115.641089,58.2952073 107.661012,48.4316943 C107.661012,48.4316943 112.481556,40.5726432 121.787735,40.5726432 C121.787735,40.5726432 115.478599,47.7593058 118.304125,57.4504115 M140.240311,60.2905951 C140.240311,60.2905951 142.235331,56.2798566 142.235331,51.0985632 C142.235331,45.9263439 139.247315,40.9092911 139.247315,40.9092911 C139.247315,40.9092911 149.718911,42.5780124 164,49.5922678 C163.764389,49.1204162 155.865556,34.2126282 134.923268,33.0593141 C113.64607,31.8887592 106,48.4316943 106,48.4316943 C106,48.4316943 108.825525,66.8148507 133.262257,65.9718697 C154.03393,65.2550182 160.018988,55.6083755 160.018988,55.6083755 L159.684981,52.6048587 C159.684981,52.6048587 151.542412,58.9567069 140.240311,60.2905951" id="Fill-5" fill="#FFFFFF"></path>
                <g id="Group-9" transform="translate(0.000000, 30.000000)">
                    <mask id="mask-2" fill="white">
                        <use xlink:href="#path-1"></use>
                    </mask>
                    <g id="Clip-8"></g>
                    <path d="M3.91842897,0 L4.71431965,1.4606304 C4.02503789,1.63635233 3.28612784,2.20349716 2.49850854,3.16206492 C1.75959849,4.06019921 1.54913779,5.10244407 1.86804549,6.28694001 C2.18603414,7.47143596 2.94700121,8.5703953 4.15278477,9.58474779 C5.30250676,10.552613 6.46417629,11.0593244 7.63687433,11.1039522 C8.80957237,11.1504395 9.75710504,10.7329837 10.4803914,9.85344428 C11.2680107,8.89487653 11.5391282,7.87494556 11.2909867,6.79272164 L12.9783485,6.91358857 C13.1088525,8.39281389 12.6493313,9.76976718 11.601623,11.0444484 C10.5042865,12.3804929 9.16340368,13.0322446 7.57897466,12.9987738 C5.99546469,12.9653029 4.42390227,12.2930968 2.86520644,10.9812257 C1.35521985,9.7111932 0.438934627,8.24777357 0.113593635,6.5881776 C-0.211747358,4.92951138 0.159545752,3.45028607 1.22747297,2.15236115 C2.14100106,1.04038537 3.03890544,0.322621737 3.91842897,0" id="Fill-7" fill="#FFFFFF" mask="url(#mask-2)"></path>
                </g>
                <path d="M12.1594533,25.8939978 L14.0561393,31.673764 L17.0012492,29.2726145 L12.1594533,25.8939978 Z M20.4983467,31.6015283 L18.1687119,29.9894847 L14.4802704,32.9986937 L15.3937835,35.7628502 L13.8780219,37 L10,23.2926001 L10.3588802,23 L22,30.3753511 L20.4983467,31.6015283 Z" id="Fill-10" fill="#FFFFFF"></path>
                <polygon id="Fill-12" fill="#FFFFFF" points="31.5435588 25.7823747 26.2313576 19.3018276 27.8428537 28.0265725 27.4592495 28.2382554 20.8743427 22.2600067 23.5506095 30.1963225 22.0950645 31 18 18.6048884 18.6972992 18.2200919 25.8916707 24.9419217 23.8392089 15.3803117 24.529338 15 33 24.9786972"></polygon>
                <path d="M32.9539761,18.2980484 L34.7521939,22.9229526 C35.3182995,22.7474275 35.7468222,22.598414 36.0377619,22.4749979 C37.0315139,22.0544689 37.6817466,21.553491 37.9875839,20.9702356 C38.2934211,20.3888086 38.2811526,19.672081 37.9507783,18.8227954 C37.644941,18.0338465 37.1997682,17.544753 36.6178887,17.3546008 C36.0360093,17.1635344 35.2350487,17.2851221 34.2141307,17.7166214 L32.9539761,18.2980484 Z M31.1005498,13.5332725 L32.4553474,17.0154351 C32.8014956,16.9075602 33.2203787,16.750319 33.7119967,16.5418829 C35.2131406,15.9065185 35.7161508,14.9511864 35.2201512,13.677715 C34.7854942,12.5578282 33.8776221,12.2899695 32.497411,12.8741391 C31.9689873,13.0981164 31.503659,13.3175228 31.1005498,13.5332725 L31.1005498,13.5332725 Z M37.0280086,23.5976274 L33.7128731,25 L29,12.8805384 C30.3837164,12.2113489 31.3871079,11.7451102 32.0110509,11.4809084 C33.1581597,10.9954717 34.1466537,10.8775407 34.976533,11.1271155 C35.8064122,11.3766903 36.4075708,11.9809721 36.7808851,12.939961 C36.9999662,13.5031041 36.9982135,14.1009866 36.7765035,14.7345226 C36.5547934,15.3671444 36.2235427,15.8452675 35.7827515,16.1661494 C36.7922773,16.0089081 37.6107644,16.1085552 38.2399653,16.4660048 C38.86829,16.8225403 39.3616607,17.4615614 39.7192011,18.3830683 C40.1328262,19.4471894 40.0898863,20.4546305 39.5877524,21.4053916 C39.0864948,22.3570669 38.2329547,23.0875075 37.0280086,23.5976274 L37.0280086,23.5976274 Z" id="Fill-14" fill="#FFFFFF"></path>
                <path d="M42.0667534,9.49121771 L43.2527091,13.5597664 C43.6575639,13.4901716 44.0433463,13.3958523 44.4100564,13.2768086 C45.3810143,12.9608848 46.0398786,12.5652933 46.3857824,12.0909498 C46.7316862,11.617522 46.781101,10.9554557 46.5331599,10.1065823 C46.3294322,9.40605565 45.9445167,8.97841391 45.3801474,8.8254885 C44.8157781,8.67164736 44.0216732,8.76230374 42.9969658,9.09562621 C42.8348505,9.14782231 42.5244907,9.28060187 42.0667534,9.49121771 L42.0667534,9.49121771 Z M50.1465106,18.8874315 L45.4165583,14.5405036 C45.0550498,14.6577159 44.4742089,14.81522 43.6757694,15.0121 L45.2674469,20.4734604 L43.6497616,21 L40,8.47934594 C40.0598179,8.46011579 40.4724751,8.30261177 41.2397052,8.00591815 C42.0069354,7.71014025 42.567837,7.50410301 42.9241439,7.38780643 C45.7719983,6.46109672 47.5448635,7.19550501 48.2427395,9.58828414 C48.4716081,10.3739728 48.4490681,11.1569143 48.1733853,11.9352772 C47.8994365,12.7145558 47.467707,13.2832186 46.8816645,13.6421813 L52,18.2848871 L50.1465106,18.8874315 Z" id="Fill-16" fill="#FFFFFF"></path>
                <polygon id="Fill-18" fill="#FFFFFF" points="54.2170397 18 51 5.42192506 52.7839007 5 56 17.5771695"></polygon>
                <path d="M57.9852013,4.97232687 L59.7458962,14.0999353 C60.1356887,14.0851657 60.6103338,14.0252185 61.1707157,13.9209626 C62.3577706,13.6994187 63.2054144,13.0877838 63.7154149,12.0860579 C64.2254154,11.084332 64.3297136,9.80545896 64.0291934,8.24943891 C63.4723471,5.35981149 61.8725188,4.16086806 59.2332441,4.65347743 C59.0741451,4.68301661 58.6587201,4.78901016 57.9852013,4.97232687 M60.8578211,15.5334546 L58.3555483,16 L56,3.78815304 C57.5830345,3.43542041 58.5986161,3.21735171 59.044977,3.13394695 C60.7809233,2.81075351 62.2543563,3.07226218 63.4670438,3.92021058 C64.6788474,4.76815897 65.4504773,6.05398236 65.7828173,7.77594313 C66.6322289,12.1772818 64.9899742,14.7636982 60.8578211,15.5334546" id="Fill-20" fill="#FFFFFF"></path>
                <path d="M77.0933091,1.75355151 L76.5236944,3.23491856 C75.5473436,2.70061203 74.6280462,2.48199233 73.7648821,2.57643604 C72.3965185,2.72772087 71.3723163,3.30487686 70.6922755,4.30790402 C70.0131549,5.31180566 69.7656164,6.56843167 69.9505801,8.07865653 C70.1254215,9.51455069 70.6554668,10.6286367 71.5388757,11.4191655 C72.4222846,12.2105688 73.5339075,12.532377 74.8728241,12.3837156 C75.8252493,12.2787781 76.5623436,11.9219908 77.0859474,11.3151025 L76.7298232,8.40483711 L74.9179147,8.60509275 L74.7412329,7.16307724 L78.3392838,6.76606388 L79,12.1782131 C78.5711786,12.6154524 77.9454306,12.9975997 77.1236763,13.3264037 C76.3010018,13.6552077 75.4884496,13.8642081 74.6850997,13.9525305 C72.8814732,14.1510372 71.3870398,13.726915 70.1999591,12.6810384 C69.0137986,11.6334128 68.3033906,10.1459244 68.0668947,8.21769865 C67.8322392,6.29471981 68.2150497,4.6716872 69.2134858,3.34947528 C70.2128421,2.02726336 71.6861105,1.25859652 73.6323707,1.04347474 C74.995213,0.893938864 76.1491659,1.13004813 77.0933091,1.75355151" id="Fill-22" fill="#FFFFFF"></path>
                <polygon id="Fill-24" fill="#FFFFFF" points="82.7803922 1.85512655 82.9625272 5.35631404 87.0766885 5.13666282 87.1525054 6.59924001 83.0392157 6.81889123 83.2762527 11.3609961 88.9189542 11.0593065 89 12.6074506 81.6570806 13 81 0.397842166 88.4361656 0 88.5172113 1.54902626"></polygon>
                <path d="M104.852786,0.790170759 L104.226027,2.23776692 C103.690064,1.81851776 102.829702,1.58911727 101.648467,1.54956546 C100.54128,1.51177151 99.6377235,1.95650962 98.9369163,2.88290084 C98.2361092,3.810171 97.8605823,5.02221417 97.8103358,6.52078821 C97.7609707,7.94992686 98.0642131,9.12153929 98.7191813,10.0338677 C99.3741495,10.946196 100.243327,11.4208177 101.328476,11.4577327 C102.50971,11.4981635 103.433542,11.1114347 104.098207,10.2975464 L105,11.6423078 C103.967742,12.5977037 102.666621,13.0485943 101.093992,12.9958586 C99.448197,12.9396071 98.1726399,12.3041414 97.2664389,11.0885825 C96.360238,9.87214471 95.9406352,8.29534598 96.0067491,6.35642848 C96.0702184,4.48079387 96.6282196,2.9391523 97.6798711,1.73238271 C98.732404,0.525613112 100.058208,-0.0509643491 101.658164,0.00352925246 C103.028925,0.0501124925 104.093799,0.312912281 104.852786,0.790170759" id="Fill-26" fill="#FFFFFF"></path>
                <path d="M107.913623,0 L109.680697,0.177229015 L108.811257,9.27001025 C108.733953,10.0805998 108.920391,10.7717929 109.372391,11.3454553 C109.823481,11.9181848 110.46101,12.2465249 111.285887,12.3295427 C112.158055,12.4172244 112.868341,12.2325331 113.418562,11.7754688 C113.966964,11.3174718 114.283454,10.6542621 114.367124,9.78397439 L115.232017,0.735966803 L117,0.914128601 L116.116918,10.1514914 C115.988685,11.493768 115.479389,12.4993094 114.59176,13.1699813 C113.703221,13.8406533 112.555488,14.1046312 111.14765,13.962848 C109.697976,13.8173336 108.615724,13.336017 107.90271,12.5198307 C107.189696,11.7036445 106.89958,10.6066901 107.030541,9.22896774 L107.913623,0 Z" id="Fill-28" fill="#FFFFFF"></path>
                <path d="M122.451327,3.82415631 L121.791043,7.89609236 C122.181841,8.02220249 122.56744,8.11634103 122.946107,8.18117229 C123.947798,8.35168739 124.704265,8.31083481 125.213775,8.05772647 C125.723286,7.80373002 126.047362,7.25222025 126.185138,6.40230906 C126.298651,5.70159858 126.135747,5.15452931 125.695557,4.76376554 C125.255368,4.37211368 124.507566,4.08614565 123.449552,3.90586146 C123.283181,3.87833037 122.949573,3.85079929 122.451327,3.82415631 L122.451327,3.82415631 Z M125.703356,15.6749556 L123.31091,9.73801066 C122.938308,9.6740675 122.353411,9.54529307 121.555351,9.35079929 L120.668907,14.8179396 L119,14.5337478 L121.03111,2 C121.092632,2.01065719 121.528489,2.06305506 122.339547,2.15719361 C123.151471,2.25133215 123.739834,2.3294849 124.107236,2.39165187 C127.045587,2.89165187 128.32023,4.3401421 127.932031,6.73534636 C127.80552,7.52309059 127.452849,8.19094139 126.87835,8.74067496 C126.302984,9.29040853 125.678227,9.58703375 125.001479,9.63055062 L127.614887,16 L125.703356,15.6749556 Z" id="Fill-30" fill="#FFFFFF"></path>
                <polygon id="Fill-32" fill="#FFFFFF" points="129 16.6233847 131.4616 4 133 4.3757121 130.5384 17"></polygon>
                <path d="M136.154724,11.4847603 C135.757962,12.8759615 135.703697,14.1156195 135.991927,15.2037344 C136.280158,16.2918493 136.928677,16.9764365 137.937484,17.2592583 C139.079731,17.5790848 140.072525,17.3949423 140.916756,16.7077118 C141.759207,16.0196003 142.401499,14.9032913 142.84363,13.3570228 C143.73501,10.2336484 143.009986,8.34376467 140.669447,7.68825253 C139.633062,7.39750119 138.72478,7.59662181 137.9446,8.28385227 C137.164421,8.97196379 136.568388,10.0389331 136.154724,11.4847603 M134.399542,10.9931262 C134.900388,9.23804533 135.76419,7.89442167 136.990059,6.96225523 C138.215929,6.03008878 139.584134,5.77458002 141.095565,6.19837214 C142.794702,6.67414707 143.942287,7.58252477 144.53743,8.92350524 C145.133462,10.2644857 145.153033,11.9067903 144.598812,13.8495379 C144.030357,15.8416252 143.130082,17.2751175 141.898875,18.1491337 C140.668557,19.0240309 139.206054,19.2240326 137.511365,18.7500198 C135.967908,18.317417 134.930634,17.3826074 134.397763,15.9464719 C133.866672,14.5103365 133.867561,12.8592212 134.399542,10.9931262" id="Fill-34" fill="#FFFFFF"></path>
                <path d="M145,19.8142568 L146.134597,18.515693 C146.350336,18.8584703 146.65342,19.1921795 147.042973,19.5177272 C147.432527,19.843275 147.802865,20.0745136 148.153987,20.2105364 C148.777622,20.4535637 149.341864,20.4717001 149.847585,20.2649455 C150.353306,20.0590977 150.705302,19.6818613 150.903572,19.1341431 C151.051184,18.725168 151.082627,18.3044044 150.999651,17.8709452 C150.915801,17.4383929 150.525373,16.8498678 149.829243,16.10537 L149.051882,15.281979 C148.393309,14.5846358 148.001135,13.9081493 147.876234,13.2543334 C147.750459,12.6005174 147.822954,11.9004537 148.092847,11.1541422 C148.420386,10.2473239 149.000349,9.61617841 149.83361,9.25979882 C150.66687,8.90341924 151.569133,8.91339424 152.537776,9.29153746 C153.831339,9.79482161 154.652371,10.3643035 155,10.9972627 L154.007774,12.2568332 C153.853175,12.0128991 153.583282,11.7317855 153.20159,11.4125854 C152.81815,11.0933854 152.440825,10.8612399 152.06874,10.716149 C151.525461,10.5048603 151.039829,10.4985126 150.612717,10.6980126 C150.185606,10.8975126 149.880776,11.2484513 149.6991,11.7508286 C149.5873,12.0609605 149.541008,12.3647446 149.561097,12.662181 C149.581186,12.9605242 149.659796,13.2334765 149.797799,13.4828516 C149.934929,13.7313198 150.257228,14.1312266 150.762949,14.6816653 L151.55079,15.5277268 C152.207616,16.2314178 152.598043,16.9178792 152.723819,17.5871111 C152.84872,18.2572498 152.760503,19.0126294 152.456546,19.8523432 C152.126387,20.7646024 151.49489,21.4011888 150.559438,21.7621025 C149.623985,22.1230161 148.565377,22.0731411 147.383614,21.6133843 C146.345096,21.2089433 145.55114,20.6086296 145,19.8142568" id="Fill-36" fill="#FFFFFF"></path>
                <polygon id="Fill-38" fill="#FFFFFF" points="153 24.3059427 158.370114 13 160 13.6940573 154.629886 25"></polygon>
                <polygon id="Fill-40" fill="#FFFFFF" points="167.303452 18.1930295 161.599563 28 160 27.152815 165.702952 17.3467382 161.974387 15.3735478 162.772763 14 172 18.8811439 171.200687 20.2546917"></polygon>
                <polygon id="Fill-42" fill="#FFFFFF" points="173.699155 29.3466944 170.349794 34 169 32.926861 172.349361 28.2726445 173.29543 20 174.685943 21.1059344 173.880225 27.6058043 179.610353 25.024987 181 26.1309214"></polygon>
                <path d="M28.9415406,71.0018701 L24.1616644,74.9119752 L27.6146854,76.8394918 L28.9415406,71.0018701 Z M26.7645953,81.0159283 L27.3889977,78.2126781 L23.0623776,75.7976398 L20.7782305,77.6736958 L19,76.6805959 L30.5796568,68 L31,68.2347327 L28.5268396,82 L26.7645953,81.0159283 Z" id="Fill-44" fill="#FFFFFF"></path>
                <polygon id="Fill-46" fill="#FFFFFF" points="38.5561886 85.8033675 36.0404339 74.884584 32.5296217 83.1684922 31 82.5471335 35.8949681 71 36.5384087 71.2613027 39.0862909 81.6574808 42.4712707 73.672454 44 74.2938126 39.0389922 86"></polygon>
                <path d="M46.9267957,77.0963607 L44.1690182,86.6786554 C44.5302202,86.853508 44.9889468,87.0264904 45.5470039,87.1994729 C46.7299406,87.5632037 47.7918745,87.3911562 48.7328058,86.6814605 C49.6728341,85.9708298 50.3780811,84.7992241 50.8485467,83.1657084 C51.7217526,80.1315021 50.8422257,78.2090589 48.2108689,77.3965087 C48.053746,77.3488216 47.6248186,77.2478373 46.9267957,77.0963607 M44.493197,88.5889431 L42,87.8194047 L45.6896787,75 C47.2952217,75.4319887 48.3210355,75.715306 48.766217,75.8536919 C50.4954717,76.386665 51.7082075,77.3534968 52.4035214,78.7523174 C53.0988353,80.152073 53.1864268,81.7556673 52.6653929,83.5640356 C51.3361694,88.1840705 48.6118031,89.859663 44.493197,88.5889431" id="Fill-48" fill="#FFFFFF"></path>
                <polygon id="Fill-50" fill="#FFFFFF" points="60 91.6718447 62.3265751 79 64 79.3290569 61.6734249 92"></polygon>
                <polygon id="Fill-52" fill="#FFFFFF" points="74.3979103 93.7876344 73.9538529 85.4265233 70.2098389 93.4086022 69.7884197 93.3530466 68.0592077 84.6442652 65.6020897 92.6200717 64 92.4086022 67.9033522 80 68.6704397 80.1021505 70.4518938 89.7706093 74.3291249 80.8521505 75.0883761 80.953405 76 94"></polygon>
                <path d="M83.1726348,85.2945506 L80.7622425,90.7073401 L84.7491667,90.9145114 L83.1726348,85.2945506 Z M85.9647039,94.8937808 L85.1966499,92.1996759 L80.2010085,91.9398339 L79.0531578,94.5329867 L77,94.4258897 L83.2130587,82 L83.6990855,82.0245796 L88,95 L85.9647039,94.8937808 Z" id="Fill-54" fill="#FFFFFF"></path>
                <g id="Group-58" transform="translate(89.000000, 82.000000)">
                    <mask id="mask-4" fill="white">
                        <use xlink:href="#path-3"></use>
                    </mask>
                    <g id="Clip-57"></g>
                    <path d="M9.28235684,1.05535095 L8.58322782,2.47739571 C7.71041858,1.84674214 6.85612347,1.53580708 6.02475062,1.54546891 C4.70407562,1.55864412 3.66728404,2.03295183 2.91437586,2.96839202 C2.16058606,3.90207553 1.79382985,5.13351887 1.80881748,6.660087 C1.82468674,8.11199559 2.21172034,9.27756286 2.97168152,10.1559105 C3.72899782,11.0342581 4.7552099,11.4664051 6.04679126,11.4523515 C6.96456341,11.4418114 7.70512882,11.1598618 8.26672427,10.6047461 L8.23586738,7.66228162 L6.48760401,7.68160526 L6.47173475,6.22354824 L9.94004947,6.18665764 L10,11.6578849 C9.54596287,12.0522629 8.90854763,12.3719815 8.09039917,12.6179188 C7.27313233,12.8638561 6.47526125,12.9920949 5.70119406,13 C3.96174695,13.0184453 2.58200305,12.446641 1.56284397,11.2819521 C0.542803267,10.1172632 0.0226442226,8.56083121 0.000603585128,6.61089953 C-0.0205554269,4.66623794 0.514591251,3.08433391 1.60604362,1.86255239 C2.69749599,0.640770876 4.18215333,0.0206574686 6.05913402,0.000455473727 C7.37275601,-0.0144764355 8.4474575,0.337740953 9.28235684,1.05535095" id="Fill-56" fill="#FFFFFF" mask="url(#mask-4)"></path>
                </g>
                <polygon id="Fill-59" fill="#FFFFFF" points="101.934322 95 101 82.1083409 103.064619 82 104 94.8916591"></polygon>
                <polygon id="Fill-61" fill="#FFFFFF" points="115.489563 93.2269939 108.015436 84.4900144 109.027539 93.8099465 107.410279 94 106 81.010573 106.680582 80.9301658 113.928434 89.1728234 112.952289 80.1900535 114.569549 80 116 93.1666884"></polygon>
                <path d="M122.377322,82.4044485 L121.494357,88.3962778 L125.119986,87.6836133 L122.377322,82.4044485 Z M127.149852,91.3985474 L125.82497,88.8719927 L121.283383,89.7635043 L120.867512,92.6332274 L119,93 L121.635006,79.086246 L122.076055,79 L129,91.0354063 L127.149852,91.3985474 Z" id="Fill-63" fill="#FFFFFF"></path>
                <polygon id="Fill-65" fill="#FFFFFF" points="130.937941 78.5967015 133.673307 89.5634583 132.004584 90 129.269217 79.0314392 125.382581 80.0461281 125 78.5101147 134.617419 76 135 77.5360134"></polygon>
                <polygon id="Fill-67" fill="#FFFFFF" points="140.220591 88 136 75.5515373 137.779409 75 142 87.4493773"></polygon>
                <path d="M144.319971,79.7184508 C144.867765,81.0595896 145.583978,82.0687633 146.471214,82.7477425 C147.356713,83.4258364 148.272598,83.5657044 149.21713,83.1646906 C150.285807,82.7105624 150.932569,81.9519116 151.157416,80.8887383 C151.381396,79.8264501 151.189537,78.5499339 150.581842,77.0600748 C149.351692,74.0484879 147.641462,73.0083307 145.450285,73.9387181 C144.479708,74.3503548 143.905869,75.0682845 143.729638,76.0916221 C143.554274,77.1158449 143.751341,78.3241976 144.319971,79.7184508 M142.675719,80.41602 C141.985551,78.7243262 141.824077,77.1317792 142.191299,75.6401496 C142.558521,74.14852 143.449229,73.1021662 144.863424,72.5019734 C146.454719,71.8265352 147.888013,71.8327319 149.164174,72.5205634 C150.440335,73.208395 151.460396,74.4902227 152.224356,76.3625055 C153.009152,78.2834766 153.198406,79.9680885 152.792118,81.4172266 C152.38583,82.8663647 151.389209,83.9277676 149.802255,84.6014353 C148.357675,85.2149067 146.992096,85.120186 145.706385,84.3172732 C144.420674,83.5143604 143.410163,82.2139427 142.675719,80.41602" id="Fill-69" fill="#FFFFFF"></path>
                <polygon id="Fill-71" fill="#FFFFFF" points="164.556661 76.7711977 154.232939 71.9855123 158.876102 80.1208081 157.472047 81 151 69.6610101 151.591413 69.2897547 161.510577 73.7198846 157.035759 65.8791919 158.439814 65 165 76.4932179"></polygon>
            </g>
        </g>
    </g>
</svg>