<?xml version="1.0" encoding="UTF-8"?>
<!-- Generated by Pixelmator Pro 3.6.17 -->
<svg width="3840" height="3559" viewBox="0 0 3840 3559" xmlns="http://www.w3.org/2000/svg">
    <g id="Thick-Logo">
        <g id="Thick-logo---white">
            <path id="path38" fill="#ffffff" fill-rule="evenodd" stroke="none" d="M 1154 1825 L 2684 1825 L 2684 1736 L 1154 1736 Z"/>
            <path id="path39" fill="#ffffff" fill-rule="evenodd" stroke="none" d="M 1154 1060 L 1244 1060 L 1244 2500 L 1154 2500 Z"/>
            <path id="path40" fill="#ffffff" fill-rule="evenodd" stroke="none" d="M 2596 1060 L 2685 1060 L 2685 2500 L 2596 2500 Z"/>
            <path id="path41" fill="#ffffff" fill-rule="evenodd" stroke="none" d="M 1880 1736 C 2324.589355 1736 2685 2078.054199 2685 2500 L 2592 2500 C 2592 2127.20752 2276.906738 1825 1880 1825 L 1880 1736 Z"/>
            <path id="path42" fill="#ffffff" fill-rule="evenodd" stroke="none" d="M 1959 1825 C 1514.410645 1825 1154 1482.945801 1154 1061 L 1247 1061 C 1247 1433.792236 1562.093262 1736 1959 1736 L 1959 1825 Z"/>
            <path id="path43" fill="#ffffff" fill-rule="evenodd" stroke="none" d="M 1154 2500 C 1154.259766 2922.544189 1483.748657 3265 1905.872803 3265 C 2328.16333 3265 2685 2922.774658 2685 2500.000488 L 2591.999756 2500 C 2591.999756 2500.146973 2592 2500.293945 2592 2500.440918 C 2592 2872.680664 2277.815918 3174 1906.001587 3174 C 1534.187256 3174 1244 2872.23999 1244 2500 L 1154 2500 Z M 1740.004517 1755 C 1797.307983 1741.270508 1857.118286 1734 1918.624878 1734 C 1980.088501 1734 2039.895508 1741.270996 2097.22583 1755 L 1740.004517 1755 Z"/>
            <path id="path44" fill="#ffffff" fill-rule="evenodd" stroke="none" d="M 2685 1061 C 2684.740234 638.455811 2355.251465 296 1933.127197 296 C 1510.836548 296 1154 638.225342 1154 1060.999268 L 1247.000122 1061 C 1247.000122 1060.853027 1247 1060.706055 1247 1060.559082 C 1247 688.319336 1561.18396 387 1932.998413 387 C 2304.812744 387 2595 688.76001 2595 1061 L 2685 1061 Z M 2098.995361 1806 C 2041.691895 1819.729492 1981.881714 1827 1920.375122 1827 C 1858.911499 1827 1799.104614 1819.729004 1741.774292 1806 L 2098.995361 1806 Z"/>
        </g>
    </g>
</svg>
